<?xml version="1.0" encoding="UTF-8" standalone="no"?>
<!-- Created with Inkscape (http://www.inkscape.org/) -->

<svg
   width="14.816667mm"
   height="14.816667mm"
   viewBox="0 0 14.816667 14.816667"
   version="1.1"
   id="svg5"
   inkscape:version="1.4 (e7c3feb100, 2024-10-09)"
   sodipodi:docname="logo_simple_rotated.svg"
   xmlns:inkscape="http://www.inkscape.org/namespaces/inkscape"
   xmlns:sodipodi="http://sodipodi.sourceforge.net/DTD/sodipodi-0.dtd"
   xmlns="http://www.w3.org/2000/svg"
   xmlns:svg="http://www.w3.org/2000/svg"
   xmlns:rdf="http://www.w3.org/1999/02/22-rdf-syntax-ns#"
   xmlns:cc="http://creativecommons.org/ns#"
   xmlns:dc="http://purl.org/dc/elements/1.1/">
  <title
     id="title715">LOGO_Overte_Org_Black</title>
  <sodipodi:namedview
     id="namedview7"
     pagecolor="#d1d1d1"
     bordercolor="#666666"
     borderopacity="1.0"
     inkscape:pageshadow="2"
     inkscape:pageopacity="0"
     inkscape:pagecheckerboard="true"
     inkscape:document-units="mm"
     showgrid="false"
     inkscape:zoom="9.6457944"
     inkscape:cx="46.704292"
     inkscape:cy="35.922391"
     inkscape:window-width="2560"
     inkscape:window-height="1412"
     inkscape:window-x="0"
     inkscape:window-y="0"
     inkscape:window-maximized="1"
     inkscape:current-layer="layer1"
     inkscape:showpageshadow="2"
     inkscape:deskcolor="#d1d1d1" />
  <defs
     id="defs2" />
  <g
     inkscape:groupmode="layer"
     id="layer4"
     inkscape:label="pastille"
     style="display:inline"
     transform="translate(-64.878913,-47.104301)" />
  <g
     inkscape:label="Letters"
     inkscape:groupmode="layer"
     id="layer1"
     style="display:inline"
     transform="translate(-64.878913,-47.104301)">
    <path
       style="fill:#121212;fill-opacity:1;stroke-width:0.0240699"
       d="m 67.981243,58.121235 c -0.870534,-1.07708 -1.302143,-2.338576 -1.272687,-3.719788 0.02544,-1.192645 0.417383,-2.314857 1.151038,-3.295613 0.19921,-0.2663 0.844677,-0.901444 1.121399,-1.103453 1.154063,-0.842473 2.497774,-1.215095 3.917533,-1.086366 0.527559,0.04783 1.192706,0.219406 1.701515,0.438901 0.201716,0.08702 0.679403,0.337373 0.718697,0.376667 0.02111,0.02111 -0.122536,0.171623 -1.027545,1.076632 l -1.05209,1.05209 -0.09417,-0.03348 c -0.272561,-0.09692 -0.848617,-0.132253 -1.235173,-0.07577 -1.201261,0.175531 -2.181718,1.164808 -2.348038,2.36918 -0.153167,1.109043 0.302696,2.142176 1.221699,2.768773 0.933648,0.636583 2.244647,0.6225 3.182572,-0.03419 0.192644,-0.134874 0.562406,-0.504508 0.697967,-0.697677 0.261938,-0.373321 0.440033,-0.835141 0.487902,-1.265163 0.04235,-0.380414 -0.01245,-0.956413 -0.118351,-1.244101 l -0.03825,-0.103902 1.041981,-1.042974 c 0.73707,-0.73773 1.047426,-1.037526 1.060479,-1.024473 0.03985,0.03984 0.221506,0.362961 0.328798,0.584824 0.957853,1.980694 0.696088,4.314873 -0.675131,6.020183 -0.189128,0.235217 -0.625636,0.671726 -0.860853,0.860853 -0.837403,0.673344 -1.972346,1.132212 -3.022946,1.222207 -1.403497,0.120226 -2.738048,-0.252328 -3.874244,-1.081531 -0.22944,-0.167442 -0.83581,-0.743703 -1.012144,-0.961869 z"
       id="path339"
       sodipodi:nodetypes="cssssssscsscsscssccscsssscc" />
  </g>
  <metadata
     id="metadata713">
    <rdf:RDF>
      <cc:Work
         rdf:about="">
        <dc:title>LOGO_Overte_Org_Black</dc:title>
      </cc:Work>
    </rdf:RDF>
  </metadata>
</svg>
